<svg width="126" height="53" viewBox="0 0 126 53" fill="none" xmlns="http://www.w3.org/2000/svg">
<path d="M81.1112 9.50249H81.1113H90.8358C91.4271 7.25361 92.7858 5.24616 94.7048 3.78155C96.7536 2.21779 99.3168 1.36705 101.957 1.36705C104.597 1.36705 107.16 2.21779 109.209 3.78155C111.128 5.24616 112.486 7.25361 113.078 9.50249H122.802C123.262 9.50251 123.71 9.67168 124.047 9.98478C124.385 10.2992 124.584 10.7353 124.584 11.2V49.9353C124.584 49.9353 124.584 49.9354 124.584 49.9355C124.585 50.1646 124.536 50.3903 124.443 50.5993C124.35 50.8083 124.214 50.9952 124.047 51.1507C123.88 51.3061 123.684 51.4273 123.47 51.5093C123.257 51.5913 123.03 51.633 122.802 51.6329L81.1112 9.50249ZM81.1112 9.50249C80.6518 9.50251 80.2034 9.67168 79.8664 9.98478C79.5279 10.2992 79.3289 10.7353 79.3289 11.1999V11.2M81.1112 9.50249L79.3289 11.2M79.3289 11.2V49.9353M79.3289 11.2V49.9353M79.3289 49.9353C79.3289 49.9353 79.3289 49.9354 79.3289 49.9355M79.3289 49.9353V49.9355M79.3289 49.9355C79.3288 50.1646 79.3774 50.3903 79.4706 50.5993M79.3289 49.9355L79.4706 50.5993M79.4706 50.5993C79.5637 50.8083 79.6989 50.9953 79.8663 51.1507M79.4706 50.5993L79.8663 51.1507M79.8663 51.1507C80.0335 51.3061 80.2298 51.4273 80.4429 51.5093C80.656 51.5913 80.8829 51.633 81.1113 51.6329M79.8663 51.1507L81.1113 51.6329M81.1113 51.6329C81.1113 51.6329 81.1114 51.6329 81.1114 51.6329M81.1113 51.6329H81.1114M81.1114 51.6329H122.802H81.1114ZM101.957 4.76199C103.715 4.7651 105.418 5.31039 106.799 6.30607C107.956 7.14038 108.83 8.24959 109.337 9.50249H94.5762C95.0833 8.24959 95.9575 7.14038 97.1145 6.30607C98.4954 5.31039 100.198 4.7651 101.957 4.76199ZM82.8937 48.238V12.8974H90.5032V16.9067C90.5032 17.3714 90.7022 17.8075 91.0407 18.1219C91.3777 18.435 91.8262 18.6042 92.2856 18.6042C92.745 18.6042 93.1935 18.435 93.5305 18.1219C93.8689 17.8075 94.068 17.3714 94.068 16.9067V12.8974H109.845V16.9067C109.845 17.3714 110.044 17.8075 110.383 18.1219C110.72 18.435 111.168 18.6042 111.628 18.6042C112.087 18.6042 112.536 18.435 112.873 18.1219C113.211 17.8075 113.41 17.3714 113.41 16.9067V12.8974H121.02V48.238H82.8937Z" fill="#111111" stroke="#111111" stroke-width="1.16897"/>
<path d="M49.6454 47.0028L40.253 38.3668C47.3812 30.1198 46.7103 17.9827 38.5758 10.4359C34.2989 6.468 28.6803 4.28955 22.6423 4.28955C16.6044 4.28955 10.9019 6.468 6.62498 10.4359C2.34809 14.4038 0 19.6165 0 25.2961C0 30.9756 2.34809 36.1883 6.62498 40.1562C10.9019 44.0463 16.5205 46.3026 22.6423 46.3026C27.7578 46.3026 32.7895 44.6687 36.7309 41.7123L46.0394 50.3483C46.5426 50.8151 47.1296 51.0485 47.8005 51.0485C48.4714 51.0485 49.1422 50.8151 49.5615 50.3483C50.5679 49.4147 50.5679 47.9364 49.6454 47.0028ZM40.253 25.2961C40.253 29.653 38.4081 33.7765 35.0537 36.8108C31.6993 39.845 27.3385 41.6345 22.6423 41.6345C17.9461 41.6345 13.5015 39.9228 10.231 36.8108C6.96042 33.6987 5.03163 29.653 5.03163 25.2961C5.03163 20.9392 6.87656 16.8157 10.231 13.7814C13.5854 10.7471 17.8623 8.95767 22.6423 8.95767C27.3385 8.95767 31.7831 10.6693 35.0537 13.7814C38.3242 16.8935 40.253 20.8614 40.253 25.2961Z" fill="#111111"/>
</svg>
