<svg width="469" height="494" viewBox="0 0 469 494" fill="none" xmlns="http://www.w3.org/2000/svg">
<path d="M465.694 461.083L466.547 459.281C466.547 459.281 466.816 458.954 466.969 458.767C467.354 458.226 467.657 457.632 467.87 457.003C467.87 457.003 468.138 456.676 468.253 456.536C468.627 455.57 468.643 454.501 468.298 453.522C467.453 445.003 458.223 431.313 439.694 404.973C430.625 392.042 421.258 378.71 414.795 367.765C404.467 349.908 395.17 331.478 386.95 312.564L379.647 296.625C374.075 284.69 368.124 272.836 362.173 260.981C356.222 249.126 350.748 237.741 345.231 225.93C337.599 211.163 331.76 195.542 327.838 179.399C325.17 161.973 324.73 144.285 326.529 126.761L327.074 122.279C330.216 110.982 335.504 100.4 342.649 91.1087C347.064 84.8784 350.228 80.3596 349.158 75.6463C348.847 74.403 348.268 73.2415 347.464 72.2423C346.659 71.243 345.647 70.43 344.498 69.8596C342.812 68.9242 340.918 68.4286 338.992 68.4185C337.066 68.4085 335.171 68.8843 333.48 69.802C324.585 74.2273 318.128 88.4806 316.946 96.5068L316.522 98.7407C314.607 97.6349 312.468 96.9736 310.265 96.8059C304.984 96.873 299.875 98.6634 295.716 101.904L265.746 121.087C258.723 126.545 250.325 129.957 241.475 130.949C235.11 130.487 229.01 128.191 223.914 124.34C214.554 118.012 206.876 109.5 201.547 99.5434C196.219 89.5865 193.401 78.4863 193.339 67.2082C193.338 63.2951 193.374 55.4222 187.322 52.0915C193.837 45.5966 199.586 38.3778 204.458 30.5751C208.873 24.7117 210.813 17.3483 209.863 10.0587C209.587 8.45371 208.99 6.92003 208.107 5.54938C207.225 4.17873 206.075 2.99926 204.727 2.08155C202.115 0.737415 199.15 0.239821 196.246 0.658057C193.343 1.07629 190.644 2.38954 188.527 4.41492C184.028 7.84789 180.245 12.1266 177.389 17.0116C173.805 24.197 171.178 31.8228 169.575 39.695C168.092 46.6777 165.807 53.4633 162.763 59.9167L161.338 57.2587C160.7 55.9089 159.586 54.8406 158.211 54.2587C156.835 53.6769 155.295 53.6225 153.885 54.1059C137.867 59.1489 122.415 65.8237 107.771 74.0254C106.928 74.494 106.262 75.226 105.876 76.1097C105.49 76.9933 105.405 77.9798 105.633 78.9185C106.974 84.6376 108.431 90.2167 110.003 95.6557C89.7357 102.161 70.3976 111.248 52.4659 122.695L49.302 120.72C48.5721 120.259 47.7238 120.021 46.8615 120.035C45.9993 120.049 45.1607 120.316 44.4493 120.801C42.1133 122.401 40.1312 123.667 38.3878 124.738C35.5 126.413 32.798 128.389 30.3266 130.631C29.6425 131.288 29.1853 132.145 29.021 133.079L27.5903 142.935C23.8136 145.16 19.9226 147.185 15.9331 149.003C4.80031 154.719 2.07663 156.314 1.1457 159.07C-4.53368 175.527 13.206 198.245 23.7528 211.764L25.7276 214.327C34.7492 225.205 44.9304 235.068 56.09 243.742L63.724 250.016C68.4075 253.866 72.8607 257.995 77.3139 262.125C81.767 266.255 86.2586 270.338 91.1847 274.465C91.7981 275.032 92.569 275.4 93.3952 275.52C94.2214 275.64 95.0639 275.507 95.811 275.137C96.9234 274.643 98.2277 273.916 99.5319 273.188L99.9925 272.628L100.882 273.359C102.727 274.676 104.479 276.116 106.128 277.671L108.095 279.287C107.496 280.431 107.149 281.69 107.077 282.98C107.005 284.27 107.209 285.561 107.676 286.767C109.467 289.808 111.851 292.46 114.687 294.564C117.128 296.576 119.711 298.411 122.415 300.055C123.779 301.058 125.433 301.588 127.123 301.565C128.814 301.542 130.449 300.967 131.78 299.928C137.926 304.543 143.804 309.505 149.385 314.789C148.854 315.33 148.44 315.974 148.168 316.682C147.896 317.389 147.772 318.145 147.802 318.903C147.833 319.661 148.019 320.406 148.348 321.09C148.677 321.775 149.142 322.386 149.715 322.885C157.124 330.104 165.13 336.684 173.648 342.555C174.82 343.301 176.162 343.737 177.548 343.822C178.933 343.907 180.317 343.638 181.567 343.04C182.075 342.665 182.697 342.478 183.328 342.512C183.959 342.545 184.56 342.797 185.027 343.223C185.401 343.531 185.435 344.732 185.575 344.848C183.378 348.284 181.732 350.765 214.53 375.688C215.283 376.265 216.199 376.585 217.146 376.602C218.092 376.62 219.018 376.333 219.788 375.784L223.079 373.403L229.776 378.908C229.431 379.328 229.085 379.749 228.74 380.169C228.327 380.606 228.009 381.122 227.803 381.687C227.598 382.252 227.51 382.853 227.546 383.453C227.581 384.054 227.739 384.641 228.009 385.179C228.28 385.718 228.657 386.195 229.118 386.583L232.75 389.803C240.77 397.47 249.62 404.219 259.136 409.925C260.414 410.379 261.78 410.524 263.123 410.35C264.467 410.176 265.749 409.687 266.865 408.923L269.488 411.079C271.899 412.405 274.043 414.167 275.811 416.275C274.652 417.634 274.078 419.397 274.215 421.18C274.352 422.962 275.187 424.621 276.54 425.795C282.436 431.893 297.618 445.31 310.959 438.436C312.599 437.364 313.871 435.816 314.605 433.999L314.989 433.533C316.522 433.797 317.971 434.425 319.214 435.362C318.641 437.386 317.79 439.32 316.687 441.109C315.759 442.716 314.976 444.404 314.348 446.151C314.039 447.121 314.081 448.17 314.465 449.115C314.85 450.06 315.553 450.842 316.453 451.324L326.648 456.965C335.762 462.108 345.109 467.443 353.904 471.542L374.802 481.442C376.825 482.557 379.123 483.072 381.425 482.927C383.727 482.781 385.938 481.981 387.797 480.621C390.083 483.674 393.071 486.13 396.508 487.781C396.952 488.018 397.433 488.176 397.931 488.246C401.545 489.207 405.37 488.975 408.834 487.584L409.49 488.123C414.801 491.801 421.096 493.791 427.549 493.83C434.002 493.869 440.31 491.955 445.644 488.341C455.435 481.679 460.731 471.322 465.694 461.083ZM393.45 443.955C393.472 443.526 393.429 443.095 393.323 442.677C392.895 435.141 391.606 427.676 389.48 420.428C388.455 417.434 387.202 414.521 385.734 411.715C383.139 406.375 378.809 397.417 380.06 393.985C380.11 393.749 380.217 393.527 380.37 393.34C380.524 393.154 380.72 393.006 380.943 392.911C384.659 391.35 393.472 399.532 399.871 405.495C403.811 409.22 408.005 412.668 412.422 415.812L414.811 417.775C425.712 425.326 436.979 433.1 448.826 434.153C453.368 440.04 456.837 446.679 459.074 453.765L458.422 454.558C454.412 460.965 444.036 463.469 433.204 466.145L432.027 466.431C426.872 466.497 411.725 457.333 393.463 443.653L393.45 443.955ZM337.76 77.3884C338.154 77.1223 338.614 76.9693 339.09 76.9463C339.565 76.9233 340.038 77.0311 340.457 77.2579L340.504 77.2963C339.15 80.2239 337.461 82.984 335.47 85.5213C331.642 90.7641 328.207 96.2834 325.194 102.034C325.374 100.383 325.593 98.6847 325.781 97.1185C327.126 89.3696 331.27 82.3913 337.428 77.5064L337.76 77.3884ZM183.098 59.8085C184.456 62.0765 185.036 64.7237 184.75 67.3469C184.811 80.1006 187.99 92.655 194.011 103.917C200.031 115.18 208.711 124.809 219.294 131.966C225.87 136.726 233.694 139.457 241.796 139.819C252.444 138.957 262.604 135.021 271.04 128.49L300.699 109.208C303.216 107.094 306.299 105.766 309.568 105.387C311.3 105.747 312.899 106.58 314.188 107.791C315.478 109.003 316.407 110.547 316.874 112.253C318.03 116.822 318.311 121.566 317.702 126.235C315.827 144.53 316.315 162.997 319.154 181.181C323.197 198.036 329.264 214.345 337.223 229.754C343.02 241.796 348.503 253.266 354.22 264.928C359.937 276.591 366.024 288.089 371.319 300.265L378.566 316.08C386.897 335.261 396.321 353.953 406.79 372.061C413.279 383.263 422.888 396.872 432.098 409.919L441.63 423.622C433.943 420.161 426.663 415.857 419.925 410.789L417.536 408.826C413.493 405.925 409.644 402.762 406.015 399.357C396.444 390.473 386.631 381.312 377.583 385.064C376.242 385.597 375.028 386.404 374.019 387.434C373.01 388.464 372.229 389.695 371.725 391.046C369.108 398.05 373.838 407.571 377.704 415.756C378.939 418.131 380.016 420.584 380.928 423.1C382.216 427.619 383.148 432.231 383.716 436.894C374.08 429.522 363.747 421.185 353.835 412.334C353.78 411.749 353.606 411.181 353.325 410.663L325.461 346.606C323.373 342.811 322.284 338.55 322.297 334.225C323.236 326.781 332.353 321.99 337.965 320.031C339.808 319.453 341.691 319.013 343.599 318.715C350.31 317.424 359.506 315.592 363.197 308.142C364.409 304.805 364.819 301.227 364.394 297.698C363.969 294.168 362.721 290.786 360.75 287.822L345.93 258.115C334.143 234.265 322.016 209.588 309.313 185.611C305.883 177.678 300.617 170.668 293.949 165.159C287.31 160.665 279.813 157.594 271.934 156.14C248.995 152.128 225.849 149.431 202.61 148.063C200.901 145.755 198.649 143.903 196.053 142.674C185.787 124.868 177.403 106.046 171.037 86.5128C170.153 83.6737 169.393 80.7797 168.586 77.8472C167.779 74.9148 167.099 72.4001 166.262 69.5995L167.609 68.4377C170.915 65.2857 174.645 62.6109 178.693 60.4905C179.952 59.7828 181.424 59.5496 182.843 59.8331L183.098 59.8085ZM189.858 251.034C188.995 250.803 188.082 250.846 187.246 251.157L183.149 244.112C173.168 226.753 162.786 208.832 144.585 199.661L139.891 197.447C136.004 196.065 132.438 193.906 129.411 191.102C128.102 189.523 127.042 187.755 126.267 185.857C143.895 187.515 154.03 188.646 156.228 189.123C167.88 191.634 178.186 198.402 185.125 208.101C188.482 213.296 191.307 218.816 193.556 224.576L194.212 225.115C197.561 231.925 199.958 239.161 201.335 246.618C201.421 247.072 201.376 247.54 201.206 247.968C201.035 248.395 200.745 248.765 200.37 249.033C197.221 250.933 193.493 251.642 189.858 251.034ZM210.24 245.331C208.727 237.177 206.09 229.268 202.403 221.832L202.016 220.966C199.548 214.85 196.474 208.995 192.84 203.488C184.605 191.95 172.359 183.895 158.51 180.905C154.953 180.172 138.402 178.54 124.374 177.181L123.405 179.123L122.44 176.765C116.606 166.204 108.018 157.414 97.5914 151.334C125.343 147.833 153.373 146.978 181.303 148.781C183.929 148.566 186.573 148.9 189.066 149.764C191.559 150.627 193.846 152 195.78 153.795C197.691 157.008 222.104 209.701 235.276 237.976L246.943 263.214L254.842 279.955C257.517 285.675 260.184 291.31 262.65 297.093C263.53 298.735 264.02 300.556 264.082 302.416C263.797 303.446 263.245 304.382 262.48 305.128C261.715 305.874 260.766 306.403 259.728 306.662C256.667 307.298 253.486 307.068 250.543 305.998C250.09 305.882 249.621 305.84 249.155 305.874C247.747 303.119 245.945 300.584 243.805 298.348C238.742 293.731 232.714 290.301 226.162 288.306C223.611 287.305 221.106 286.342 218.67 285.2C207.948 279.306 199.046 270.582 192.94 259.983C197.777 259.885 202.452 258.245 206.283 255.302C207.722 254.103 208.838 252.563 209.529 250.822C210.221 249.081 210.465 247.193 210.24 245.331ZM254.539 258.268L243.425 234.268L230.402 206.194C250.747 210.084 268.361 225.03 282.5 237.043C286.46 240.015 289.866 243.661 292.559 247.814C293.36 248.918 293.697 250.291 293.498 251.637C292.725 252.369 291.813 252.94 290.817 253.316C289.821 253.692 288.759 253.867 287.693 253.83C276.768 255.57 265.545 256.908 254.616 258.175L254.539 258.268ZM262.261 315.707C265.039 315.006 267.548 313.501 269.472 311.381C271.396 309.261 272.65 306.619 273.079 303.786C273.197 300.458 272.454 297.152 270.922 294.189C268.447 288.321 265.716 282.478 262.994 276.719L258.418 267.011C268.682 265.98 279.053 264.724 289.313 263.221C291.859 263.146 294.344 262.433 296.539 261.148C298.734 259.862 300.569 258.044 301.875 255.862C302.604 253.952 302.868 251.895 302.643 249.86C302.419 247.825 301.713 245.871 300.584 244.161C297.396 239.067 293.308 234.594 288.521 230.959C273.585 218.292 255.026 202.49 232.36 198.179C230.282 197.778 228.173 197.563 226.059 197.538C217.612 179.172 211.262 165.894 207.561 158.079C228.652 159.438 249.653 161.968 270.469 165.656C277.134 166.828 283.482 169.381 289.107 173.15C294.614 177.822 298.967 183.703 301.824 190.331C314.471 214.184 326.637 238.815 338.377 262.626L353.197 292.333C354.442 294.131 355.298 296.167 355.711 298.312C356.124 300.456 356.084 302.662 355.594 304.788C353.879 308.308 347.423 309.574 342.276 310.586C339.823 311.013 337.41 311.648 335.066 312.484C322.191 317.55 314.908 324.787 313.627 333.984C313.528 339.532 314.857 345.016 317.488 349.911L339.041 398.923C330.526 391.142 322.476 383.273 315.405 375.74L309.671 369.541C298.529 356.222 285.446 344.651 270.864 335.219L268.628 333.929C265.9 332.551 263.347 330.847 261.027 328.856C257.562 324.947 254.978 320.341 253.45 315.351C256.277 315.919 259.187 315.917 262.01 315.344L262.261 315.707ZM193.719 11.6556C194.495 10.8429 195.459 10.2344 196.527 9.88409C197.596 9.53375 198.734 9.45234 199.843 9.64707C200.463 10.2725 200.873 11.0746 201.017 11.9422C201.362 16.9622 199.849 21.9285 196.767 25.897C190.961 35.2185 183.809 43.6299 175.543 50.8601C176.372 47.9422 177.146 44.9006 177.889 41.9909C179.345 34.9872 181.662 28.1925 184.786 21.761C187.07 17.838 190.106 14.4045 193.719 11.6556ZM154.325 63.3091C156.674 68.8537 158.553 74.5852 159.939 80.4426C160.755 83.4603 161.532 86.5246 162.471 89.4874C168.126 107.074 175.46 124.081 184.373 140.272L181.945 140.076C167.089 139.055 152.165 139.072 137.445 139.414C127.549 120.786 120.102 100.963 115.29 80.4401C127.756 73.5666 140.821 67.833 154.325 63.3091ZM112.834 104.242C116.909 116.537 121.922 128.505 127.828 140.038C114.778 140.736 101.655 141.999 88.8379 143.748C88.114 143.868 87.4332 144.17 86.8604 144.627L61.0634 128.275C77.2139 118.162 94.534 110.041 112.647 104.088L112.834 104.242ZM440.899 480.842C432.617 486.241 419.596 486.806 413.301 479.285C412.672 478.535 411.815 478.01 410.862 477.792C409.908 477.573 408.91 477.672 408.019 478.073L406.135 479.028C404.339 480.098 402.19 480.413 400.157 479.905C398.094 478.9 396.297 477.423 394.912 475.593C393.592 473.855 392.035 472.311 390.284 471.008C389.766 470.647 389.178 470.4 388.559 470.281C387.939 470.163 387.302 470.177 386.689 470.322C386.063 470.467 385.476 470.744 384.965 471.135C384.455 471.525 384.034 472.019 383.73 472.584C383.504 473.026 383.186 473.413 382.796 473.72C382.406 474.026 381.955 474.245 381.472 474.361C380.989 474.476 380.487 474.487 380 474.391C379.512 474.295 379.05 474.095 378.647 473.805L357.748 463.905C349.086 459.836 339.832 454.578 330.821 449.597L324.122 445.812L324.583 445.252C326.989 441.901 328.178 437.828 327.953 433.704C326.721 430.692 324.514 428.178 321.687 426.564C318.86 424.949 315.575 424.327 312.359 424.798C311.134 425.171 310.012 425.818 309.078 426.69C308.143 427.563 307.42 428.638 306.965 429.833C306.696 430.159 306.466 430.44 306.236 430.72C299.962 433.388 290.454 427.294 283.395 420.319C284.247 419.117 284.721 417.689 284.759 416.216C284.796 414.742 284.395 413.29 283.606 412.042C281.246 408.406 278.039 405.394 274.261 403.266C273.137 402.342 272.06 401.457 271.077 400.648C269.822 399.758 268.319 399.287 266.782 399.304C265.246 399.32 263.756 399.823 262.526 400.74L262.065 401.301C253.769 395.824 245.925 389.691 238.609 382.96L239.568 381.793C240.021 381.364 240.377 380.844 240.613 380.267C240.849 379.691 240.96 379.07 240.939 378.446C240.918 377.823 240.764 377.21 240.49 376.649C240.215 376.089 239.824 375.592 239.344 375.192L226.23 364.414C225.478 363.787 224.541 363.427 223.564 363.388C222.588 363.35 221.627 363.636 220.832 364.202L217.379 366.685C209.258 360.654 201.527 354.116 194.23 347.111C194.714 345.109 194.623 343.011 193.967 341.056C193.311 339.101 192.118 337.369 190.523 336.059C188.929 334.748 186.998 333.913 184.954 333.648C182.909 333.383 180.832 333.7 178.962 334.562L178.655 334.935C171.467 329.922 164.686 324.348 158.376 318.267C159.184 316.952 159.539 315.408 159.386 313.87C159.234 312.331 158.582 310.884 157.531 309.748C151.296 303.62 144.652 297.924 137.643 292.698C136.981 292.024 136.191 291.487 135.32 291.119C134.449 290.75 133.515 290.558 132.57 290.553C131.626 290.548 130.69 290.73 129.817 291.089C128.945 291.448 128.153 291.976 127.486 292.644C123.459 290.268 119.825 287.281 116.715 283.79L117.329 283.043C118.108 281.719 118.447 280.181 118.295 278.65C118.143 277.119 117.508 275.674 116.483 274.524L113.158 271.791C111.318 270.056 109.362 268.448 107.304 266.979L104.4 264.592C103.772 264.12 103.029 263.822 102.249 263.731C101.469 263.64 100.679 263.758 99.9609 264.073C98.8485 264.568 97.5826 265.248 96.2784 265.976L95.8945 266.443C91.9604 263.209 88.2482 259.611 84.5612 256.267C80.0697 252.184 75.6165 248.055 70.6904 243.928L61.9323 236.729C51.2905 228.452 41.5741 219.049 32.9535 208.686L30.3607 206.398C21.7335 195.317 5.90488 174.952 8.9522 162.747C10.717 161.459 15.9978 158.758 19.642 156.902C31.8403 150.654 35.7148 148.518 35.9862 144.75L37.4163 135.754C39.2498 134.469 41.1585 133.295 43.1323 132.237L46.9729 129.76L86.0814 154.549C96.3695 161.128 108.846 168.957 114.487 180.713C115.197 182.236 115.83 183.852 116.502 185.421C117.909 189.698 120.083 193.686 122.918 197.188C126.741 200.997 131.348 203.929 136.417 205.779L140.744 207.771C156.548 215.753 165.836 231.759 175.605 248.708C185.373 265.657 196.218 284.351 214.706 293.365C217.329 294.661 220.145 295.723 222.875 296.793C228.188 298.397 233.113 301.086 237.337 304.689C240.66 308.776 243.144 313.476 244.646 318.521C246.631 324.951 250.04 330.855 254.619 335.794C257.513 338.28 260.715 340.386 264.144 342.058L266.286 343.271C280.065 352.295 292.435 363.306 302.994 375.946L308.882 381.959C342.511 417.424 414.918 476.076 433.141 475.483L434.031 475.354L435.71 474.935C440.647 473.818 445.522 472.445 450.314 470.82C447.908 474.78 444.702 478.193 440.899 480.842Z" fill="black"/>
</svg>
