<svg width="405" height="386" viewBox="0 0 405 386" fill="none" xmlns="http://www.w3.org/2000/svg">
<path d="M1.90633 356.231L1.34722 354.695C1.34722 354.695 1.15287 354.407 1.04182 354.243C0.769364 353.772 0.567135 353.264 0.441552 352.735C0.441552 352.735 0.24721 352.447 0.163918 352.324C-0.0671624 351.507 0.0014375 350.633 0.357337 349.86C1.69785 342.971 10.2775 332.501 27.4137 312.415C35.8037 302.552 44.4675 292.385 50.5788 283.943C60.3726 270.156 69.3688 255.821 77.5232 241.01L84.7012 228.557C90.1606 219.24 95.9234 210.018 101.686 200.795C107.449 191.573 112.787 182.698 118.192 173.478C125.549 162.007 131.508 149.701 135.942 136.823C139.45 122.802 141.16 108.398 141.029 93.9559L140.927 90.256C139.225 80.7941 135.716 71.7523 130.593 63.6227C127.465 58.2 125.227 54.2697 126.46 50.5041C126.81 49.513 127.37 48.609 128.104 47.8548C128.837 47.1006 129.725 46.5142 130.707 46.1363C132.154 45.5015 133.738 45.2415 135.311 45.3804C136.883 45.5192 138.395 46.0524 139.704 46.9305C146.627 51.222 150.81 63.3497 151.162 69.9916L151.337 71.8474C152.985 71.091 154.781 70.7145 156.593 70.7458C160.898 71.2038 164.932 73.0554 168.08 76.0185L191.079 93.9652C196.395 98.9565 202.99 102.383 210.138 103.868C215.369 103.977 220.523 102.569 224.977 99.814C233.101 95.364 240.018 89.0019 245.128 81.2811C250.238 73.5603 253.385 64.7146 254.297 55.5133C254.597 52.3192 255.169 45.8899 260.363 43.6331C255.541 37.8341 251.399 31.5026 248.018 24.7614C244.862 19.6381 243.84 13.4794 245.172 7.60148C245.52 6.3125 246.125 5.10619 246.95 4.05473C247.775 3.00328 248.803 2.12827 249.974 1.48207C252.209 0.584348 254.667 0.404521 257.005 0.967625C259.343 1.53073 261.446 2.80873 263.019 4.62365C266.429 7.76942 269.191 11.551 271.149 15.7565C273.527 21.8955 275.089 28.3209 275.796 34.8692C276.473 40.6822 277.821 46.3957 279.812 51.8958L281.179 49.835C281.802 48.7818 282.793 47.9948 283.96 47.6249C285.127 47.255 286.389 47.3282 287.503 47.8305C300.193 53.1699 312.297 59.7983 323.624 67.6112C324.277 68.0581 324.764 68.7065 325.012 69.4572C325.259 70.208 325.254 71.0198 324.996 71.7686C323.464 76.3346 321.849 80.7775 320.15 85.0972C336.198 91.9546 351.289 100.849 365.053 111.562L367.786 110.192C368.417 109.871 369.128 109.741 369.83 109.819C370.533 109.896 371.197 110.177 371.741 110.628C373.526 112.113 375.047 113.297 376.388 114.305C378.618 115.892 380.672 117.711 382.519 119.731C383.027 120.319 383.335 121.053 383.397 121.828L383.813 129.983C386.726 132.087 389.747 134.037 392.865 135.826C401.516 141.341 403.618 142.852 404.167 145.172C407.547 159.04 391.331 176.229 381.69 186.46L379.882 188.401C371.688 196.591 362.624 203.866 352.852 210.093L346.142 214.632C342.025 217.417 338.074 220.448 334.124 223.479C330.174 226.51 326.196 229.5 321.859 232.492C321.315 232.909 320.658 233.15 319.974 233.185C319.291 233.22 318.613 233.047 318.032 232.688C317.161 232.2 316.152 231.507 315.143 230.813L314.81 230.321L314.028 230.85C312.422 231.783 310.881 232.825 309.417 233.968L307.688 235.138C308.089 236.117 308.276 237.171 308.237 238.23C308.197 239.288 307.932 240.327 307.459 241.276C305.764 243.621 303.616 245.604 301.141 247.105C298.994 248.561 296.745 249.862 294.413 250.997C293.223 251.711 291.833 252.018 290.454 251.87C289.076 251.722 287.785 251.128 286.778 250.178C281.409 253.476 276.232 257.078 271.273 260.965C271.665 261.447 271.954 262.004 272.122 262.603C272.29 263.201 272.334 263.827 272.25 264.444C272.167 265.06 271.959 265.654 271.638 266.188C271.317 266.721 270.891 267.184 270.385 267.548C263.786 272.875 256.748 277.635 249.348 281.777C248.334 282.297 247.205 282.55 246.067 282.514C244.93 282.477 243.821 282.152 242.846 281.569C242.46 281.224 241.967 281.024 241.449 281.003C240.931 280.982 240.422 281.141 240.008 281.454C239.679 281.677 239.56 282.654 239.437 282.738C240.967 285.711 242.122 287.861 213.446 305.702C212.788 306.115 212.015 306.306 211.241 306.248C210.468 306.19 209.734 305.885 209.147 305.379L206.643 303.184L200.756 307.166C201.005 307.535 201.255 307.905 201.505 308.274C201.809 308.662 202.029 309.108 202.154 309.585C202.278 310.062 202.304 310.559 202.229 311.047C202.154 311.534 201.981 312.001 201.719 312.42C201.457 312.839 201.113 313.2 200.707 313.481L197.496 315.832C190.364 321.478 182.624 326.312 174.421 330.243C173.344 330.516 172.217 330.53 171.134 330.286C170.051 330.041 169.042 329.544 168.189 328.835L165.883 330.394C163.814 331.293 161.93 332.568 160.325 334.153C161.168 335.351 161.501 336.833 161.253 338.278C161.006 339.723 160.197 341.014 159.003 341.868C153.725 346.396 140.307 356.189 129.942 349.559C128.685 348.559 127.765 347.198 127.305 345.659L127.027 345.249C125.755 345.348 124.525 345.749 123.439 346.419C123.752 348.115 124.299 349.759 125.062 351.304C125.698 352.687 126.208 354.124 126.587 355.598C126.765 356.413 126.651 357.267 126.265 358.009C125.879 358.751 125.245 359.335 124.473 359.659L115.721 363.486C107.889 366.988 99.8515 370.63 92.3596 373.304L74.5449 379.79C72.8086 380.545 70.8936 380.79 69.0255 380.496C67.1574 380.201 65.4138 379.38 64 378.127C61.9013 380.444 59.2741 382.221 56.3425 383.307C55.9623 383.466 55.5572 383.558 55.1457 383.578C52.1222 384.086 49.0179 383.605 46.2963 382.205L45.72 382.595C41.1039 385.192 35.813 386.335 30.5427 385.874C25.2724 385.413 20.2694 383.37 16.1915 380.012C8.70746 373.827 5.17572 364.968 1.90633 356.231ZM62.1853 347.766C62.2002 347.414 62.2679 347.065 62.3864 346.733C63.3112 340.614 64.9335 334.619 67.2217 328.864C68.2878 326.498 69.5326 324.216 70.9452 322.038C73.4709 317.877 77.6894 310.896 76.9303 307.999C76.9074 307.802 76.8375 307.613 76.7263 307.449C76.6152 307.284 76.4662 307.149 76.2917 307.055C73.3773 305.496 65.559 311.502 59.8804 315.882C56.3798 318.621 52.6931 321.115 48.8471 323.344L46.7474 324.765C37.2728 330.096 27.4821 335.582 17.7309 335.536C13.5741 339.995 10.2354 345.15 7.86824 350.763L8.34023 351.46C11.1243 356.996 19.403 359.832 28.0407 362.844L28.979 363.167C33.1821 363.614 46.2461 357.291 62.1977 347.518L62.1853 347.766ZM135.631 52.7964C135.33 52.549 134.967 52.3891 134.58 52.334C134.194 52.2789 133.799 52.3308 133.44 52.4839L133.399 52.5117C134.28 55.0049 135.449 57.3868 136.88 59.6099C139.604 64.1818 141.987 68.9494 144.007 73.8738C143.986 72.512 143.938 71.1091 143.903 69.8162C143.397 63.3883 140.547 57.3757 135.894 52.9181L135.631 52.7964ZM263.221 50.2549C261.94 52.0025 261.264 54.1192 261.298 56.2823C260.274 66.6882 256.72 76.6934 250.946 85.4269C245.172 94.1605 237.351 101.358 228.166 106.392C222.435 109.776 215.84 111.407 209.199 111.085C200.573 109.567 192.58 105.579 186.193 99.6038L163.454 81.6C161.562 79.6822 159.146 78.3624 156.506 77.8039C155.066 77.9656 153.697 78.5227 152.551 79.4135C151.406 80.3042 150.53 81.4937 150.019 82.8501C148.726 86.4917 148.135 90.3428 148.275 94.2001C148.409 109.277 146.6 124.314 142.895 138.941C138.308 152.39 132.11 165.24 124.437 177.211C118.785 186.598 113.434 195.542 107.877 204.625C102.32 213.708 96.4727 222.629 91.2211 232.164L84.0977 244.52C75.833 259.542 66.7137 274.079 56.7847 288.062C50.6332 296.71 41.7501 307.085 33.2366 317.032L24.409 327.49C30.9478 325.252 37.219 322.294 43.1065 318.672L45.2061 317.252C48.7282 315.192 52.1114 312.904 55.3338 310.402C63.8243 303.881 72.534 297.152 79.6332 300.906C80.6874 301.443 81.6168 302.194 82.3617 303.112C83.1066 304.03 83.6506 305.095 83.9587 306.236C85.5603 312.153 80.9722 319.564 77.1913 325.95C76.0015 327.794 74.9351 329.714 73.9991 331.699C72.6027 335.289 71.4896 338.983 70.67 342.745C79.0982 337.463 88.1698 331.447 96.9361 324.979C97.0261 324.506 97.2111 324.055 97.4799 323.654L125.116 273.493C127.11 270.554 128.324 267.16 128.644 263.628C128.446 257.48 121.37 252.873 116.938 250.845C115.478 250.233 113.975 249.73 112.44 249.341C107.06 247.774 99.694 245.578 97.2498 239.214C96.5153 236.397 96.4538 233.446 97.0701 230.597C97.6865 227.749 98.9635 225.083 100.798 222.814L115.164 199.696C126.606 181.128 138.389 161.91 150.589 143.309C153.995 137.095 158.829 131.775 164.692 127.787C170.455 124.626 176.809 122.691 183.351 122.106C202.382 120.582 221.482 120.148 240.556 120.806C242.127 119.052 244.107 117.713 246.32 116.907C256.06 103.156 264.34 88.4323 271.028 72.974C271.966 70.724 272.808 68.4197 273.69 66.0876C274.573 63.7555 275.32 61.7547 276.217 59.5326L275.206 58.4814C272.748 55.6561 269.908 53.1879 266.766 51.148C265.792 50.4742 264.608 50.1714 263.428 50.2945L263.221 50.2549ZM243.103 205.833C243.825 205.71 244.567 205.814 245.226 206.132L249.108 200.694C258.581 187.287 268.423 173.45 283.981 167.354L287.982 165.905C291.26 165.075 294.336 163.584 297.021 161.526C298.21 160.338 299.21 158.975 299.988 157.485C285.471 157.492 277.112 157.642 275.282 157.863C265.578 159.023 256.649 163.761 250.245 171.148C247.108 175.133 244.381 179.423 242.105 183.953L241.528 184.343C238.274 189.646 235.765 195.369 234.072 201.352C233.967 201.715 233.968 202.101 234.075 202.463C234.181 202.825 234.39 203.149 234.675 203.397C237.101 205.188 240.09 206.052 243.103 205.833ZM226.901 199.621C228.758 193.08 231.515 186.826 235.093 181.038L235.475 180.361C237.956 175.556 240.912 171.011 244.3 166.794C251.902 158.005 262.513 152.364 274.047 150.981C277.006 150.654 290.641 150.586 302.196 150.548L302.838 152.207L303.806 150.356C309.374 142.18 317.056 135.661 326.031 131.494C303.645 126.517 280.83 123.679 257.894 123.019C255.766 122.642 253.582 122.714 251.482 123.228C249.381 123.742 247.41 124.689 245.693 126.006C243.889 128.483 219.937 169.631 207.026 191.706L195.576 211.416L187.85 224.479C185.23 228.944 182.623 233.339 180.168 237.872C179.324 239.145 178.785 240.594 178.593 242.108C178.746 242.97 179.126 243.776 179.693 244.444C180.26 245.111 180.995 245.615 181.822 245.906C184.272 246.659 186.886 246.714 189.37 246.066C189.749 246.005 190.135 246.006 190.513 246.07C191.873 243.929 193.537 241.997 195.455 240.335C199.94 236.953 205.123 234.613 210.623 233.485C212.782 232.862 214.9 232.268 216.976 231.522C226.178 227.529 234.11 221.088 239.904 212.902C235.963 212.453 232.272 210.757 229.37 208.062C228.286 206.974 227.493 205.632 227.062 204.158C226.631 202.683 226.575 201.124 226.901 199.621ZM189.753 206.799L200.657 188.056L213.432 166.135C196.527 167.757 181.008 178.612 168.549 187.338C165.09 189.462 162.032 192.179 159.516 195.363C158.778 196.203 158.398 197.298 158.458 198.412C159.033 199.068 159.733 199.604 160.518 199.987C161.303 200.37 162.156 200.594 163.029 200.645C171.814 202.899 180.873 204.848 189.697 206.717L189.753 206.799ZM179.064 253.096C176.85 252.311 174.917 250.892 173.509 249.014C172.1 247.137 171.277 244.884 171.144 242.539C171.301 239.813 172.16 237.171 173.637 234.87C176.106 230.269 178.781 225.708 181.442 221.215L185.919 213.64C177.62 212.015 169.25 210.197 160.989 208.187C158.917 207.932 156.943 207.16 155.249 205.943C153.556 204.726 152.197 203.102 151.298 201.221C150.848 199.606 150.79 197.907 151.128 196.263C151.467 194.619 152.192 193.078 153.244 191.768C156.236 187.854 159.914 184.514 164.1 181.913C177.258 172.713 193.614 161.232 212.446 159.443C214.172 159.274 215.91 159.26 217.638 159.401C225.935 145.054 232.132 134.7 235.75 128.604C218.43 128.103 201.094 128.564 183.82 129.985C178.291 130.433 172.914 132.032 168.034 134.68C163.182 138.073 159.18 142.541 156.342 147.733C144.197 166.238 132.386 185.415 120.985 203.955L106.619 227.073C105.466 228.445 104.611 230.042 104.111 231.761C103.61 233.48 103.474 235.284 103.711 237.057C104.843 240.061 110.016 241.587 114.14 242.806C116.111 243.342 118.031 244.044 119.881 244.906C130.004 250.025 135.396 256.488 135.739 264.093C135.397 268.629 133.893 273.004 131.372 276.799L110.037 315.161C117.581 309.46 124.753 303.651 131.1 298.042L136.254 293.42C146.366 283.398 157.929 274.952 170.552 268.366L172.475 267.484C174.808 266.568 177.021 265.372 179.067 263.923C182.194 260.997 184.655 257.435 186.283 253.478C183.933 253.726 181.557 253.502 179.297 252.819L179.064 253.096ZM258.228 10.1377C257.657 9.41507 256.916 8.84475 256.071 8.47722C255.226 8.10968 254.303 7.95627 253.383 8.03057C252.829 8.4938 252.433 9.11721 252.249 9.8144C251.584 13.8858 252.44 18.0552 254.653 21.53C258.681 29.5822 263.876 36.9943 270.072 43.5274C269.618 41.0822 269.219 38.5404 268.834 36.1084C268.18 30.2803 266.808 24.5571 264.749 19.0686C263.183 15.6919 260.968 12.6574 258.228 10.1377ZM286.441 55.3092C284.1 59.6559 282.129 64.191 280.55 68.8663C279.654 71.2673 278.785 73.7094 277.793 76.0561C271.834 89.9803 264.549 103.303 256.037 115.839L258.035 115.864C270.239 116.164 282.42 117.318 294.41 118.721C303.91 104.271 311.502 88.6586 316.997 72.2733C307.346 65.7108 297.119 60.0331 286.441 55.3092ZM317.184 91.8896C312.919 101.615 307.913 111.001 302.212 119.965C312.811 121.531 323.427 123.564 333.755 125.97C334.337 126.123 334.87 126.422 335.303 126.838L357.609 115.46C345.197 105.972 331.679 98.0205 317.349 91.7783L317.184 91.8896ZM20.6368 374.253C26.9854 379.292 37.5705 380.748 43.2835 375.089C43.8544 374.525 44.5938 374.162 45.389 374.056C46.1841 373.951 46.9914 374.108 47.6876 374.503L49.1524 375.427C50.5373 376.437 52.2674 376.858 53.9654 376.599C55.7261 375.936 57.3061 374.868 58.5763 373.48C59.7859 372.162 61.1754 371.02 62.7038 370.09C63.1542 369.835 63.653 369.678 64.1677 369.629C64.6825 369.58 65.2015 369.64 65.6909 369.805C66.1907 369.971 66.6491 370.242 67.0356 370.6C67.4222 370.957 67.7281 371.393 67.9331 371.878C68.0839 372.255 68.3145 372.595 68.6093 372.875C68.904 373.155 69.256 373.368 69.6411 373.5C70.0262 373.631 70.4354 373.678 70.8407 373.637C71.246 373.596 71.638 373.468 71.9897 373.262L89.8044 366.776C97.1861 364.117 105.141 360.531 112.877 357.153L118.634 354.575L118.301 354.082C116.593 351.164 115.933 347.748 116.432 344.399C117.668 342.035 119.661 340.151 122.092 339.049C124.523 337.947 127.252 337.69 129.841 338.32C130.812 338.718 131.679 339.332 132.375 340.115C133.071 340.899 133.579 341.831 133.859 342.841C134.054 343.129 134.22 343.375 134.387 343.621C139.304 346.278 147.531 342.029 153.825 336.875C153.222 335.829 152.944 334.627 153.026 333.422C153.108 332.216 153.546 331.061 154.285 330.102C156.49 327.315 159.337 325.101 162.583 323.652C163.571 322.984 164.518 322.343 165.383 321.759C166.475 321.128 167.738 320.858 168.991 320.989C170.244 321.12 171.422 321.644 172.355 322.487L172.689 322.979C179.879 319.142 186.75 314.735 193.236 309.799L192.542 308.773C192.205 308.389 191.955 307.937 191.806 307.448C191.657 306.959 191.614 306.444 191.679 305.937C191.744 305.429 191.915 304.941 192.183 304.504C192.45 304.067 192.807 303.692 193.229 303.402L204.757 295.605C205.418 295.151 206.211 294.928 207.011 294.972C207.811 295.015 208.574 295.322 209.179 295.845L211.808 298.135C218.897 293.832 225.708 289.086 232.198 283.924C231.957 282.254 232.191 280.548 232.876 279.002C233.56 277.456 234.667 276.134 236.068 275.186C237.47 274.238 239.109 273.703 240.799 273.643C242.488 273.583 244.159 274 245.62 274.846L245.842 275.175C252.092 271.631 258.053 267.6 263.668 263.117C263.109 261.982 262.937 260.694 263.179 259.451C263.421 258.207 264.064 257.075 265.009 256.228C270.566 251.702 276.424 247.559 282.544 243.829C283.136 243.329 283.822 242.951 284.561 242.717C285.3 242.483 286.077 242.397 286.849 242.465C287.62 242.533 288.37 242.753 289.055 243.113C289.74 243.472 290.346 243.964 290.839 244.56C294.308 242.928 297.502 240.767 300.308 238.155L299.864 237.499C299.328 236.358 299.17 235.077 299.411 233.839C299.651 232.6 300.28 231.47 301.204 230.609L304.127 228.632C305.762 227.356 307.481 226.194 309.273 225.151L311.826 223.425C312.375 223.087 313.003 222.901 313.647 222.886C314.291 222.871 314.927 223.028 315.489 223.34C316.359 223.828 317.341 224.481 318.35 225.174L318.627 225.585C322.086 223.246 325.391 220.591 328.655 218.144C332.634 215.154 336.584 212.123 340.92 209.13L348.619 203.923C357.937 197.979 366.587 191.046 374.415 183.244L376.706 181.575C384.594 173.188 399.07 157.774 397.514 147.578C396.172 146.392 392.067 143.784 389.234 141.991C379.754 135.959 376.755 133.92 376.821 130.824L376.34 123.371C374.942 122.182 373.473 121.078 371.943 120.063L368.997 117.748L335.181 134.997C326.281 139.582 315.498 145.02 309.997 154.185C309.301 155.374 308.66 156.645 307.992 157.875C306.517 161.259 304.438 164.348 301.856 166.99C298.444 169.808 294.46 171.849 290.182 172.972L286.497 174.268C272.987 179.577 264.184 191.933 254.916 205.022C245.648 218.111 235.368 232.543 219.588 238.489C217.348 239.347 214.969 239.999 212.658 240.664C208.199 241.567 203.974 243.386 200.25 246.005C197.225 249.087 194.839 252.735 193.228 256.738C191.117 261.835 187.884 266.394 183.769 270.076C181.216 271.884 178.442 273.359 175.515 274.462L173.674 275.289C161.738 281.603 150.799 289.647 141.215 299.158L135.95 303.616C105.791 329.998 42.2084 372.346 27.379 370.471L26.6619 370.298L25.3235 369.827C21.3786 368.539 17.5045 367.046 13.7168 365.353C15.3785 368.769 17.7352 371.801 20.6368 374.253Z" fill="black"/>
</svg>
